<svg xmlns="http://www.w3.org/2000/svg" viewBox="0 0 32 32">
    <path d="M16 32C7.16344 32 0 24.8366 0 16C0 7.16344 7.16344 0 16 0C24.8366 0 32 7.16344 32 16C32 24.8366 24.8366 32 16 32ZM23.4138 13.4148C24.195 12.634 24.1956 11.3677 23.4148 10.5864C22.6342 9.805 21.3678 9.80448 20.5864 10.5852L13.9953 17.171L11.4153 14.5869C10.6349 13.8052 9.3686 13.8042 8.58691 14.5847C7.80524 15.3651 7.80424 16.6314 8.58466 17.4131L12.5782 21.413C12.9531 21.7886 13.4618 21.9996 13.9924 22C14.5229 22.0004 15.0319 21.7898 15.4072 21.4148L23.4138 13.4148Z" fill="white"/>
</svg>
