<?xml version="1.0" encoding="UTF-8"?>
<svg id="Layer_1" xmlns="http://www.w3.org/2000/svg" xmlns:xlink="http://www.w3.org/1999/xlink" version="1.1" viewBox="0 0 1200 800">
  <!-- Generator: Adobe Illustrator 29.3.1, SVG Export Plug-In . SVG Version: 2.1.0 Build 151)  -->
  <defs>
    <style>
      .st0 {
        fill: none;
        stroke: #fff;
        stroke-width: 13px;
      }

      .st1 {
        fill: #636363;
      }

      .st2 {
        fill: #a5d5a1;
      }

      .st3 {
        fill: #bcbcbc;
      }

      .st4 {
        fill: #bbb;
      }

      .st5 {
        fill: #dcdbdb;
      }
    </style>
  </defs>
  <path class="st5" d="M1200,118.5H0V0h1200v118.5Z"/>
  <path class="st3" d="M1099,627.4h-128.2V180.8h128.2v446.6Z"/>
  <circle class="st2" cx="330.2" cy="738.3" r="51.1"/>
  <path class="st3" d="M214.4,588.1h-100.5V118.5h100.5v469.6Z"/>
  <circle class="st2" cx="1024.9" cy="736.6" r="39.3" transform="translate(-141.8 255.2) rotate(-13.3)"/>
  <circle class="st2" cx="944.5" cy="150.8" r="30"/>
  <path class="st3" d="M944.5,784.3h-161.4v-97.6h161.4v97.6Z"/>
  <path class="st5" d="M787.7,686.6h-375.5v-42.5h375.5v42.5Z"/>
  <circle class="st2" cx="255.7" cy="666.8" r="22.7"/>
  <path class="st1" d="M352.9,749h-5.8v-2.2h1.1c.4,0,.7-.3.7-.7s-.3-.7-.7-.7h-3.7c-.4,0-.7.3-.7.7s.3.7.7.7h1.1v2.2h-11.6v-5h5.8c.3,0,.6-.2.7-.4.1-.3.1-.6-.1-.8l-3.7-4h1.7c.3,0,.6-.2.7-.4.1-.3.1-.6-.1-.8l-3.4-3.7h1.7c.3,0,.6-.2.7-.4.1-.3.1-.6-.1-.8l-4.7-5c-.3-.3-.8-.3-1.1,0l-4.7,5c-.2.2-.2.5-.1.8s.4.4.7.4h1.7l-3.4,3.7c-.2.2-.2.5-.1.8s.4.4.7.4h1.7l-3.7,4c-.2.2-.2.5-.1.8s.4.4.7.4h5.8v5h-7.3c-.8,0-1.5.7-1.5,1.5s.7,1.5,1.5,1.5h29.1c.8,0,1.5-.7,1.5-1.5-.2-.8-.9-1.5-1.7-1.5h0Z"/>
  <g>
    <path class="st1" d="M1024.8,405.5h.6c1,0,1.8-.2,2.4-.8.4-.4.7-1,.7-1.7s-.3-1.3-.8-1.7c-.5-.4-1.2-.6-2.2-.6s-1.7,0-2.2.2v7.2h1.6v-2.6h0ZM1024.8,402.1c0,0,.3,0,.7,0,.8,0,1.3.4,1.3,1.1s-.5,1.2-1.4,1.2h-.6v-2.2h0Z"/>
    <path class="st1" d="M1021.7,410.4h8.1c1,0,1.9-.8,1.9-1.9v-8.1c0-1-.8-1.9-1.9-1.9h-8.1c-1,0-1.9.8-1.9,1.9v8.1c0,1.1.9,1.9,1.9,1.9h0ZM1021.3,400.5c0-.3.2-.5.5-.5h7.9c.3,0,.5.2.5.5v7.9c0,.3-.2.5-.5.5h-7.9c-.3,0-.5-.2-.5-.5v-7.9h0Z"/>
    <path class="st1" d="M1027.4,420.2c-1.8,0-3.3,1.5-3.3,3.3s1.5,3.3,3.3,3.3,3.3-1.5,3.3-3.3-1.5-3.3-3.3-3.3ZM1027.4,424.4c-.5,0-1-.4-1-1s.4-1,1-1,1,.4,1,1-.4,1-1,1Z"/>
    <path class="st1" d="M1051.2,420.7l-.5-4.3c0-.8-.8-1.4-1.7-1.4h-1.2c0,0-3.6-3.2-3.6-3.2-.3-.3-.8-.5-1.3-.5h-7.4c-1.7,0-3.3.6-4.5,1.6l-4.1,3.3-5.5,1.4c-.7.2-1.2.8-1.2,1.5v1.6c-.2,0-.4.2-.4.4v2.1c0,.3.2.5.5.5h3.1v-.4c0-2.3,1.8-4.1,4.1-4.1s4.1,1.8,4.1,4.1v.4h8.6v-.4c0-2.3,1.8-4.1,4.1-4.1s4.1,1.8,4.1,4.1v.4h2.9c.3,0,.5-.2.5-.5v-2c0-.2-.3-.5-.6-.5h0ZM1040.2,415.4l-10.3.5,2-1.6c1.1-.9,2.4-1.3,3.8-1.3h4.5v2.4ZM1041.9,415.3v-2.3h.7c.2,0,.5,0,.6.2l2.1,1.9-3.4.2h0Z"/>
    <path class="st1" d="M1044.2,420.2c-1.8,0-3.3,1.5-3.3,3.3s1.5,3.3,3.3,3.3,3.3-1.5,3.3-3.3c0-1.9-1.5-3.3-3.3-3.3ZM1044.2,424.4c-.5,0-1-.4-1-1s.4-1,1-1,1,.4,1,1-.5,1-1,1Z"/>
  </g>
  <g>
    <path class="st1" d="M857.3,727.1h.6c1,0,1.8-.2,2.4-.8.4-.4.7-1,.7-1.7s-.3-1.3-.8-1.7-1.2-.6-2.2-.6-1.7,0-2.2.2v7.2h1.6v-2.6h0ZM857.3,723.7c0,0,.3,0,.7,0,.8,0,1.3.4,1.3,1.1s-.5,1.2-1.4,1.2h-.6v-2.2h0Z"/>
    <path class="st1" d="M854.2,732h8.1c1,0,1.9-.8,1.9-1.9v-8.1c0-1-.8-1.9-1.9-1.9h-8.1c-1,0-1.9.8-1.9,1.9v8.1c0,1.1.9,1.9,1.9,1.9ZM853.8,722.1c0-.3.2-.5.5-.5h7.9c.3,0,.5.2.5.5v7.9c0,.3-.2.5-.5.5h-7.9c-.3,0-.5-.2-.5-.5v-7.9Z"/>
    <path class="st1" d="M859.9,741.8c-1.8,0-3.3,1.5-3.3,3.3s1.5,3.3,3.3,3.3,3.3-1.5,3.3-3.3-1.5-3.3-3.3-3.3ZM859.9,746c-.5,0-1-.4-1-1s.4-1,1-1,1,.4,1,1-.4,1-1,1Z"/>
    <path class="st1" d="M883.7,742.3l-.5-4.3c0-.8-.8-1.4-1.7-1.4h-1.2c0,0-3.6-3.2-3.6-3.2-.3-.3-.8-.5-1.3-.5h-7.4c-1.7,0-3.3.6-4.5,1.6l-4.1,3.3-5.5,1.4c-.7.2-1.2.8-1.2,1.5v1.6c-.2,0-.4.2-.4.4v2.1c0,.3.2.5.5.5h3.1v-.4c0-2.3,1.8-4.1,4.1-4.1s4.1,1.8,4.1,4.1v.4h8.6v-.4c0-2.3,1.8-4.1,4.1-4.1s4.1,1.8,4.1,4.1v.4h2.9c.3,0,.5-.2.5-.5v-2c0-.2-.3-.5-.6-.5h0ZM872.7,737l-10.3.5,2-1.6c1.1-.9,2.4-1.3,3.8-1.3h4.5v2.4h0ZM874.4,736.9v-2.3h.7c.2,0,.5,0,.6.2l2.1,1.9-3.4.2h0Z"/>
    <path class="st1" d="M876.7,741.8c-1.8,0-3.3,1.5-3.3,3.3s1.5,3.3,3.3,3.3,3.3-1.5,3.3-3.3c0-1.9-1.5-3.3-3.3-3.3ZM876.7,746c-.5,0-1-.4-1-1s.4-1,1-1,1,.4,1,1-.5,1-1,1Z"/>
  </g>
  <circle class="st2" cx="695.1" cy="723.5" r="27.1"/>
  <circle class="st2" cx="513.1" cy="724" r="22.7"/>
  <circle class="st2" cx="600" cy="754.6" r="42.8"/>
  <path class="st5" d="M454.8,648.4v151.6h-42.5v-151.6h42.5Z"/>
  <path class="st5" d="M1200,800h-47.4V118.5h47.4v681.5Z"/>
  <path class="st0" d="M1176.7,804.4V3.1"/>
  <path class="st5" d="M1168.9,627.4h-70v-42.5h70v42.5Z"/>
  <path class="st5" d="M787.7,648.4v151.6h-42.5v-151.6h42.5Z"/>
  <path class="st5" d="M214.4,588.3v211.7h-39.4v-211.7h39.4Z"/>
  <path class="st3" d="M105.8,588.1H5.2V118.5h100.5v469.6s0,0,.1,0Z"/>
  <g>
    <path class="st1" d="M156.2,324.3h.6c1,0,1.8-.2,2.4-.8.4-.4.7-1,.7-1.7s-.3-1.3-.8-1.7c-.5-.4-1.2-.6-2.2-.6s-1.7,0-2.2.2v7.2h1.6v-2.6h-.1ZM156.2,320.9c.1,0,.3,0,.7,0,.8,0,1.3.4,1.3,1.1s-.5,1.2-1.4,1.2h-.6v-2.2h0Z"/>
    <path class="st1" d="M153.1,329.3h8.1c1,0,1.9-.8,1.9-1.9v-8.1c0-1-.8-1.9-1.9-1.9h-8.1c-1,0-1.9.8-1.9,1.9v8.1c0,1.1.9,1.9,1.9,1.9ZM152.7,319.3c0-.3.2-.5.5-.5h7.9c.3,0,.5.2.5.5v7.9c0,.3-.2.5-.5.5h-7.9c-.3,0-.5-.2-.5-.5v-7.9Z"/>
    <path class="st1" d="M158.8,339c-1.8,0-3.3,1.5-3.3,3.3s1.5,3.3,3.3,3.3,3.3-1.5,3.3-3.3-1.5-3.3-3.3-3.3ZM158.8,343.3c-.5,0-1-.4-1-1s.4-1,1-1,1,.4,1,1-.4,1-1,1Z"/>
    <path class="st1" d="M182.6,339.5l-.5-4.3c-.1-.8-.8-1.4-1.7-1.4h-1.2c0,0-3.6-3.2-3.6-3.2-.3-.3-.8-.5-1.3-.5h-7.4c-1.7,0-3.3.6-4.5,1.6l-4.1,3.3-5.5,1.4c-.7.2-1.2.8-1.2,1.5v1.6c-.2,0-.4.2-.4.4v2.1c0,.3.2.5.5.5h3.1v-.4c0-2.3,1.8-4.1,4.1-4.1s4.1,1.8,4.1,4.1v.4h8.6v-.4c0-2.3,1.8-4.1,4.1-4.1s4.1,1.8,4.1,4.1v.4h2.9c.3,0,.5-.2.5-.5v-2c-.1-.2-.3-.5-.6-.5h0ZM171.6,334.3l-10.3.5,2-1.6c1.1-.9,2.4-1.3,3.8-1.3h4.5v2.4ZM173.3,334.2v-2.3h.7c.2,0,.5,0,.6.2l2.1,1.9-3.4.2h0Z"/>
    <path class="st1" d="M175.6,339c-1.8,0-3.3,1.5-3.3,3.3s1.5,3.3,3.3,3.3,3.3-1.5,3.3-3.3c-.1-1.9-1.5-3.3-3.3-3.3ZM175.6,343.3c-.5,0-1-.4-1-1s.4-1,1-1,1,.4,1,1-.5,1-1,1Z"/>
  </g>
  <g>
    <path class="st1" d="M44.5,319.8h.6c1,0,1.8-.2,2.4-.8.4-.4.7-1,.7-1.7s-.3-1.3-.8-1.7c-.5-.4-1.2-.6-2.2-.6s-1.7,0-2.2.2v7.2h1.6v-2.6h0ZM44.5,316.4c0,0,.3,0,.7,0,.8,0,1.3.4,1.3,1.1s-.5,1.2-1.4,1.2h-.6v-2.2h0Z"/>
    <path class="st1" d="M41.4,324.7h8.1c1,0,1.9-.8,1.9-1.9v-8.1c0-1-.8-1.9-1.9-1.9h-8.1c-1,0-1.9.8-1.9,1.9v8.1c0,1.1.9,1.9,1.9,1.9ZM41,314.8c0-.3.2-.5.5-.5h7.9c.3,0,.5.2.5.5v7.9c0,.3-.2.5-.5.5h-7.9c-.3,0-.5-.2-.5-.5v-7.9Z"/>
    <path class="st1" d="M47.1,334.5c-1.8,0-3.3,1.5-3.3,3.3s1.5,3.3,3.3,3.3,3.3-1.5,3.3-3.3-1.5-3.3-3.3-3.3ZM47.1,338.7c-.5,0-1-.4-1-1s.4-1,1-1,1,.4,1,1-.4,1-1,1Z"/>
    <path class="st1" d="M70.9,335l-.5-4.3c0-.8-.8-1.4-1.7-1.4h-1.2c0,0-3.6-3.2-3.6-3.2-.3-.3-.8-.5-1.3-.5h-7.4c-1.7,0-3.3.6-4.5,1.6l-4.1,3.3-5.5,1.4c-.7.2-1.2.8-1.2,1.5v1.6c-.2,0-.4.2-.4.4v2.1c0,.3.2.5.5.5h3.1v-.4c0-2.3,1.8-4.1,4.1-4.1s4.1,1.8,4.1,4.1v.4h8.6v-.4c0-2.3,1.8-4.1,4.1-4.1s4.1,1.8,4.1,4.1v.4h2.9c.3,0,.5-.2.5-.5v-2c0-.2-.3-.5-.6-.5h0ZM59.9,329.7l-10.3.5,2-1.6c1.1-.9,2.4-1.3,3.8-1.3h4.5v2.4ZM61.6,329.6v-2.3h.7c.2,0,.5,0,.6.2l2.1,1.9-3.4.2h0Z"/>
    <path class="st1" d="M63.9,334.5c-1.8,0-3.3,1.5-3.3,3.3s1.5,3.3,3.3,3.3,3.3-1.5,3.3-3.3c0-1.9-1.5-3.3-3.3-3.3ZM63.9,338.7c-.5,0-1-.4-1-1s.4-1,1-1,1,.4,1,1-.5,1-1,1Z"/>
  </g>
  <path class="st4" d="M117.6,730.7H2.2v-102.4h115.4v102.4Z"/>
  <path class="st5" d="M1156.9,223.3h-58.1v-42.5h58.1v42.5Z"/>
  <circle class="st2" cx="982.3" cy="667.3" r="22.7"/>
  <circle class="st2" cx="1107.6" cy="754.6" r="22.7"/>
  <rect class="st2" x="924.7" y="198" width="38.2" height="429.5" rx="19.1" ry="19.1"/>
  <path class="st2" d="M1125.8,271.9h0c10.5,0,19.1,8.6,19.1,19.1v257.9c0,10.5-8.6,19.1-19.1,19.1h0c-10.5,0-19.1-8.6-19.1-19.1v-257.9c0-10.5,8.6-19.1,19.1-19.1Z"/>
  <circle class="st2" cx="1099" cy="674.4" r="30"/>
  <circle class="st2" cx="252.3" cy="444.6" r="27.1" transform="translate(-42.6 27) rotate(-5.7)"/>
  <circle class="st2" cx="147.3" cy="734.6" r="22.7"/>
  <path class="st2" d="M252.3,498h0c10.5,0,19.1,8.6,19.1,19.1v92.1c0,10.5-8.6,19.1-19.1,19.1h0c-10.5,0-19.1-8.6-19.1-19.1v-92.1c0-10.5,8.6-19.1,19.1-19.1Z"/>
</svg>